<svg height="512pt" viewBox="0 -72 512 512" width="512pt" xmlns="http://www.w3.org/2000/svg"><path d="m310.980469 85.671875h-109.960938c-8.382812 0-15.179687-6.796875-15.179687-15.179687v-29.003907c0-22.875 18.613281-41.488281 41.492187-41.488281h57.335938c22.878906 0 41.492187 18.613281 41.492187 41.488281v29.003907c0 8.382812-6.796875 15.179687-15.179687 15.179687zm0 0" fill="#fff8ab"/><path d="m284.667969 0h-28.667969v85.671875h54.980469c8.382812 0 15.179687-6.796875 15.179687-15.179687v-29.003907c0-22.875-18.613281-41.488281-41.492187-41.488281zm0 0" fill="#fff04a"/><path d="m409.804688 189.890625h-307.609376c-5.226562 0-10.089843-2.691406-12.863281-7.125-2.773437-4.429687-3.074219-9.976563-.789062-14.683594l50.59375-104.21875c2.535156-5.230469 7.839843-8.546875 13.652343-8.546875h206.421876c5.8125 0 11.117187 3.316406 13.652343 8.546875l50.59375 104.21875c2.285157 4.707031 1.984375 10.253907-.789062 14.683594-2.773438 4.433594-7.636719 7.125-12.863281 7.125zm0 0" fill="#a5f6ff"/><path d="m372.863281 63.863281c-2.535156-5.230469-7.839843-8.546875-13.652343-8.546875h-103.210938v134.574219h153.804688c5.226562 0 10.089843-2.691406 12.863281-7.125 2.773437-4.429687 3.074219-9.976563.789062-14.683594zm0 0" fill="#38ebff"/><path d="m469.789062 317.8125h-427.578124c-23.277344 0-42.210938-18.9375-42.210938-42.210938v-49.28125c0-36.828124 29.957031-66.785156 66.785156-66.785156h378.429688c36.828125 0 66.785156 29.960938 66.785156 66.785156v49.28125c0 23.273438-18.933594 42.210938-42.210938 42.210938zm0 0" fill="#fff8ab"/><path d="m445.214844 159.535156h-189.214844v158.277344h213.789062c23.277344 0 42.210938-18.933594 42.210938-42.210938v-49.28125c0-36.824218-29.960938-66.785156-66.785156-66.785156zm0 0" fill="#fff04a"/><path d="m174.648438 302.632812c0 27.28125-22.117188 49.398438-49.398438 49.398438s-49.398438-22.117188-49.398438-49.398438 22.117188-49.394531 49.398438-49.394531 49.398438 22.113281 49.398438 49.394531zm0 0" fill="#afb4c8"/><path d="m125.25 367.207031c-35.609375 0-64.574219-28.964843-64.574219-64.574219 0-35.605468 28.964844-64.574218 64.574219-64.574218 35.605469 0 64.574219 28.96875 64.574219 64.574218 0 35.609376-28.96875 64.574219-64.574219 64.574219zm0-98.792969c-18.871094 0-34.21875 15.351563-34.21875 34.21875 0 18.867188 15.347656 34.21875 34.21875 34.21875 18.867188 0 34.21875-15.351562 34.21875-34.21875 0-18.867187-15.351562-34.21875-34.21875-34.21875zm0 0" fill="#555a66"/><path d="m436.152344 302.632812c0 27.28125-22.113282 49.398438-49.394532 49.398438s-49.398437-22.117188-49.398437-49.398438 22.117187-49.394531 49.398437-49.394531 49.394532 22.113281 49.394532 49.394531zm0 0" fill="#7e8596"/><path d="m386.757812 367.207031c-35.605468 0-64.574218-28.964843-64.574218-64.574219 0-35.605468 28.96875-64.574218 64.574218-64.574218 35.605469 0 64.574219 28.96875 64.574219 64.574218 0 35.609376-28.96875 64.574219-64.574219 64.574219zm0-98.792969c-18.867187 0-34.21875 15.351563-34.21875 34.21875 0 18.867188 15.351563 34.21875 34.21875 34.21875 18.867188 0 34.21875-15.351562 34.21875-34.21875 0-18.867187-15.351562-34.21875-34.21875-34.21875zm0 0" fill="#23272b"/></svg>